<?xml version="1.0" encoding="utf-8"?>
<!-- Generator: Adobe Illustrator 15.0.2, SVG Export Plug-In . SVG Version: 6.00 Build 0)  -->
<!DOCTYPE svg PUBLIC "-//W3C//DTD SVG 1.1//EN" "http://www.w3.org/Graphics/SVG/1.1/DTD/svg11.dtd">
<svg version="1.1" id="Layer_1" xmlns="http://www.w3.org/2000/svg" xmlns:xlink="http://www.w3.org/1999/xlink" x="0px" y="0px"
	 width="283.465px" height="283.465px" viewBox="0 0 283.465 283.465" enable-background="new 0 0 283.465 283.465"
	 xml:space="preserve">
<path fill="#DD4814" d="M141.732,85.039c-31.312,0-56.693,25.381-56.693,56.694c0,31.311,25.381,56.692,56.693,56.692
	s56.693-25.382,56.693-56.692C198.426,110.42,173.044,85.039,141.732,85.039z M167.244,176.523c0,2.561-2.078,4.637-4.64,4.637
	h-41.746c-2.561,0-4.639-2.076-4.639-4.637v-69.58c0-2.561,2.078-4.638,4.639-4.638h41.746c2.562,0,4.64,2.078,4.64,4.638V176.523z
	 M141.732,178.582c-2.344,0-4.254-1.905-4.254-4.25c0-2.344,1.91-4.25,4.254-4.25s4.254,1.906,4.254,4.25
	C145.986,176.677,144.076,178.582,141.732,178.582z M162.604,112.121v53.345c0,1.28-1.037,2.32-2.318,2.32h-37.108
	c-1.28,0-2.319-1.04-2.319-2.32v-53.345c0-1.281,1.039-2.32,2.319-2.32h37.108C161.567,109.801,162.604,110.84,162.604,112.121z
	 M145.986,107.008h-8.508c-0.391,0-0.707-0.316-0.707-0.707c0-0.393,0.316-0.709,0.707-0.709h8.508c0.391,0,0.707,0.317,0.707,0.709
	C146.693,106.691,146.377,107.008,145.986,107.008z"/>
</svg>
