<?xml version="1.0" encoding="utf-8"?>
<!-- Generator: Adobe Illustrator 15.1.0, SVG Export Plug-In . SVG Version: 6.00 Build 0)  -->
<!DOCTYPE svg PUBLIC "-//W3C//DTD SVG 1.1//EN" "http://www.w3.org/Graphics/SVG/1.1/DTD/svg11.dtd">
<svg version="1.1" id="Layer_1" xmlns="http://www.w3.org/2000/svg" xmlns:xlink="http://www.w3.org/1999/xlink" x="0px" y="0px"
	 width="141.732px" height="141.732px" viewBox="70.866 70.866 141.732 141.732"
	 enable-background="new 70.866 70.866 141.732 141.732" xml:space="preserve">
<path fill="#DD4814" d="M181.844,101.644c-10.71-10.708-24.949-16.605-40.096-16.605c-15.146,0-29.388,5.897-40.099,16.606
	c-10.711,10.708-16.61,24.945-16.61,40.087s5.899,29.379,16.61,40.086c10.712,10.709,24.952,16.606,40.1,16.606
	c15.146,0,29.385-5.897,40.095-16.604C203.952,159.717,203.952,123.748,181.844,101.644z M95.67,145.441
	c-1.957,0-3.544-1.586-3.544-3.542c0-1.957,1.588-3.545,3.544-3.545c1.957,0,3.545,1.588,3.545,3.545
	C99.215,143.855,97.627,145.441,95.67,145.441z M141.704,92.333c1.957-0.001,3.544,1.585,3.544,3.542
	c0,1.958-1.587,3.544-3.544,3.544c-1.958,0-3.545-1.586-3.545-3.545C138.159,93.918,139.746,92.332,141.704,92.333z
	 M106.647,106.849c1.384-1.385,3.626-1.383,5.012,0c1.382,1.384,1.384,3.627,0,5.011c-1.386,1.384-3.63,1.384-5.014,0
	C105.262,110.478,105.262,108.233,106.647,106.849z M111.659,176.945c-1.384,1.387-3.628,1.387-5.012,0.003s-1.384-3.628,0-5.013
	c1.384-1.384,3.628-1.381,5.012,0C113.043,173.32,113.043,175.562,111.659,176.945z M141.704,191.466
	c-1.956,0-3.545-1.587-3.545-3.544c0-1.956,1.589-3.543,3.545-3.543c1.957,0,3.544,1.585,3.544,3.541
	C145.248,189.879,143.661,191.466,141.704,191.466z M154.303,154.477c-3.346,3.344-7.796,5.188-12.53,5.188
	c-4.733,0-9.184-1.844-12.529-5.189c-3.347-3.345-5.19-7.793-5.19-12.526c0-2.271,0.437-4.475,1.248-6.525l-8.667-8.666
	c-2.769-2.768-2.769-7.255,0-10.022c2.768-2.767,7.257-2.768,10.023,0l8.705,8.702c2.019-0.783,4.181-1.206,6.41-1.206
	c4.733,0,9.184,1.842,12.53,5.187c3.35,3.347,5.192,7.797,5.192,12.529C159.495,146.682,157.65,151.13,154.303,154.477z
	 M176.76,176.945c-1.384,1.385-3.628,1.387-5.012,0c-1.384-1.381-1.382-3.627,0-5.01c1.386-1.384,3.628-1.384,5.012,0
	C178.145,173.318,178.146,175.562,176.76,176.945z M176.76,111.86c-1.384,1.384-3.626,1.385-5.012,0.001
	c-1.384-1.383-1.384-3.627,0-5.012c1.384-1.383,3.628-1.383,5.012,0.001C178.146,108.233,178.145,110.478,176.76,111.86z
	 M187.738,145.441c-1.957,0-3.547-1.586-3.547-3.542c0-1.957,1.59-3.545,3.547-3.545s3.544,1.588,3.544,3.545
	C191.282,143.855,189.695,145.441,187.738,145.441z"/>
</svg>
