<?xml version="1.0" encoding="utf-8"?>
<!-- Generator: Adobe Illustrator 15.1.0, SVG Export Plug-In . SVG Version: 6.00 Build 0)  -->
<!DOCTYPE svg PUBLIC "-//W3C//DTD SVG 1.1//EN" "http://www.w3.org/Graphics/SVG/1.1/DTD/svg11.dtd">
<svg version="1.1" id="Layer_1" xmlns="http://www.w3.org/2000/svg" xmlns:xlink="http://www.w3.org/1999/xlink" x="0px" y="0px"
	 width="141.732px" height="141.732px" viewBox="70.866 70.866 141.732 141.732"
	 enable-background="new 70.866 70.866 141.732 141.732" xml:space="preserve">
<path fill="#DD4814" d="M141.73,85.039c-31.259,0-56.69,25.433-56.69,56.693c0,31.262,25.432,56.694,56.69,56.694
	c31.262,0,56.696-25.433,56.696-56.694C198.426,110.471,172.992,85.039,141.73,85.039z M165.335,155.943h-47.19
	c-7.818,0-14.159-6.34-14.159-14.159c0-7.526,5.871-13.676,13.281-14.13c-3.312-6.644-0.921-14.803,5.597-18.566
	c6.516-3.762,14.778-1.754,18.876,4.438c4.099-6.19,12.359-8.2,18.877-4.437c6.517,3.763,8.906,11.922,5.596,18.566
	c7.41,0.455,13.281,6.604,13.281,14.13C179.495,149.604,173.155,155.943,165.335,155.943z M122.927,148.611
	c-3.91,0-7.08-3.17-7.08-7.079c0-3.764,2.936-6.839,6.64-7.066c-1.655-3.322-0.46-7.402,2.799-9.283
	c3.257-1.881,7.388-0.877,9.438,2.217c2.048-3.094,6.18-4.099,9.439-2.217c3.258,1.881,4.453,5.961,2.797,9.283
	c3.705,0.227,6.64,3.302,6.64,7.066c0,3.909-3.168,7.079-7.078,7.079H122.927z"/>
</svg>
