<?xml version="1.0" encoding="utf-8"?>
<!-- Generator: Adobe Illustrator 15.1.0, SVG Export Plug-In . SVG Version: 6.00 Build 0)  -->
<!DOCTYPE svg PUBLIC "-//W3C//DTD SVG 1.1//EN" "http://www.w3.org/Graphics/SVG/1.1/DTD/svg11.dtd">
<svg version="1.1" id="Layer_1" xmlns="http://www.w3.org/2000/svg" xmlns:xlink="http://www.w3.org/1999/xlink" x="0px" y="0px"
	 width="141.732px" height="141.732px" viewBox="70.866 70.866 141.732 141.732"
	 enable-background="new 70.866 70.866 141.732 141.732" xml:space="preserve">
<path fill="#DD4814" d="M169.23,94.807c-5.183,0.017-10.057,2.044-13.721,5.708c-3.681,3.681-5.709,8.575-5.71,13.78
	c0,5.205,2.028,10.099,5.709,13.78c1.039,1.038,2.398,1.557,3.759,1.557c1.361,0,2.723-0.519,3.76-1.557
	c2.076-2.075,2.076-5.441,0-7.516c-1.672-1.673-2.594-3.897-2.594-6.263c0-2.366,0.922-4.591,2.596-6.264
	c1.666-1.666,3.881-2.587,6.238-2.595c2.936-0.01,5.308-2.397,5.297-5.332C174.557,97.168,172.182,94.821,169.23,94.807z
	 M161.782,121.802c1.383,1.384,1.383,3.627-0.001,5.01c-1.385,1.384-3.629,1.385-5.012,0.001c-1.386-1.383-1.386-3.627,0-5.011
	C158.152,120.418,160.398,120.419,161.782,121.802z M189.665,134.012c-0.09,0.104-0.179,0.208-0.277,0.307l-33.854,33.845
	c-1.037,1.038-2.397,1.557-3.759,1.557c-1.36,0-2.721-0.519-3.758-1.557c-2.076-2.075-2.076-5.441,0-7.516l18.182-18.18
	c-1.891-0.203-3.738-0.596-5.524-1.163l-16.002,15.999c-1.038,1.038-2.397,1.557-3.758,1.557c-1.361,0-2.721-0.519-3.759-1.557
	c-2.076-2.074-2.076-5.439,0-7.516l13.847-13.844c-0.604-0.511-1.19-1.042-1.757-1.607c-0.561-0.56-1.084-1.142-1.587-1.735
	l-13.847,13.842c-1.038,1.039-2.398,1.558-3.759,1.558c-1.36,0-2.721-0.519-3.759-1.558c-2.076-2.074-2.076-5.44,0-7.516
	l16.006-16.003c-0.574-1.804-0.964-3.652-1.168-5.519l-18.183,18.178c-1.038,1.038-2.399,1.557-3.759,1.557
	c-1.361,0-2.722-0.519-3.759-1.557c-2.076-2.075-2.076-5.441,0-7.516l33.627-33.62c0.063-0.065,0.123-0.133,0.188-0.197l7.261-7.259
	c-4.764-1.278-9.723-1.952-14.787-1.952c-15.146,0-29.388,5.897-40.099,16.605c-22.109,22.104-22.109,58.071,0,80.174
	c10.711,10.707,24.952,16.605,40.1,16.605c15.146,0,29.386-5.896,40.097-16.605c10.709-10.706,16.607-24.943,16.607-40.087
	c0-5.008-0.658-9.912-1.908-14.627L189.665,134.012z M104.026,144.089c2.768-2.769,7.256-2.768,10.024-0.001
	c2.769,2.77,2.769,7.256,0,10.023c-2.768,2.768-7.255,2.768-10.024-0.002C101.258,151.344,101.258,146.855,104.026,144.089z
	 M119.372,179.247c-2.768,2.767-7.256,2.767-10.024-0.001c-2.769-2.768-2.769-7.254-0.001-10.021c2.769-2.768,7.257-2.768,10.025,0
	C122.139,171.992,122.14,176.479,119.372,179.247z M141.842,176.775c-2.768,2.768-7.256,2.768-10.024,0
	c-2.768-2.769-2.769-7.254-0.001-10.021c2.769-2.77,7.258-2.768,10.025,0C144.609,169.521,144.609,174.008,141.842,176.775z"/>
</svg>
