<?xml version="1.0" encoding="utf-8"?>
<!-- Generator: Adobe Illustrator 15.1.0, SVG Export Plug-In . SVG Version: 6.00 Build 0)  -->
<!DOCTYPE svg PUBLIC "-//W3C//DTD SVG 1.1//EN" "http://www.w3.org/Graphics/SVG/1.1/DTD/svg11.dtd">
<svg version="1.1" id="Layer_1" xmlns="http://www.w3.org/2000/svg" xmlns:xlink="http://www.w3.org/1999/xlink" x="0px" y="0px"
	 width="141.732px" height="141.732px" viewBox="70.866 70.866 141.732 141.732"
	 enable-background="new 70.866 70.866 141.732 141.732" xml:space="preserve">
<path fill="#DD4814" d="M188.152,131.745c2.383-2.383,5.401-3.733,8.512-4.065c-2.618-10.229-8.033-19.342-15.366-26.499
	c-1.841,2.502-4.505,4.424-7.735,5.291c-7.562,2.026-15.332-2.46-17.355-10.02c-0.865-3.229-0.537-6.492,0.706-9.334
	c-4.835-1.344-9.919-2.078-15.176-2.078c-5.335,0-10.498,0.756-15.395,2.14c1.22,2.828,1.539,6.067,0.68,9.272
	c-2.025,7.559-9.795,12.046-17.354,10.02c-3.176-0.852-5.799-2.723-7.635-5.159c-7.271,7.145-12.635,16.223-15.232,26.401
	c3.022,0.373,5.951,1.707,8.272,4.028c5.534,5.535,5.537,14.509,0.003,20.047c-2.318,2.318-5.24,3.65-8.261,4.025
	c2.606,10.164,7.975,19.229,15.248,26.362c1.834-2.416,4.442-4.272,7.601-5.116c7.561-2.028,15.334,2.459,17.359,10.02
	c0.854,3.184,0.542,6.398-0.66,9.21c4.893,1.381,10.045,2.135,15.373,2.135c5.249,0,10.327-0.729,15.152-2.069
	c-1.221-2.828-1.541-6.068-0.684-9.273c2.022-7.559,9.797-12.049,17.358-10.023c3.219,0.861,5.869,2.771,7.707,5.254
	c7.334-7.146,12.752-16.248,15.379-26.463c-3.104-0.336-6.118-1.686-8.496-4.062C182.617,146.25,182.617,137.279,188.152,131.745z
	 M151.754,151.758c-5.534,5.533-14.507,5.529-20.043-0.004c-5.533-5.534-5.533-14.508,0-20.042
	c5.539-5.534,14.509-5.538,20.043-0.002C157.288,137.244,157.288,146.221,151.754,151.758z"/>
</svg>
