<?xml version="1.0" encoding="utf-8"?>
<!-- Generator: Adobe Illustrator 15.1.0, SVG Export Plug-In . SVG Version: 6.00 Build 0)  -->
<!DOCTYPE svg PUBLIC "-//W3C//DTD SVG 1.1//EN" "http://www.w3.org/Graphics/SVG/1.1/DTD/svg11.dtd">
<svg version="1.1" id="Layer_1" xmlns="http://www.w3.org/2000/svg" xmlns:xlink="http://www.w3.org/1999/xlink" x="0px" y="0px"
	 width="141.732px" height="141.732px" viewBox="70.866 70.866 141.732 141.732"
	 enable-background="new 70.866 70.866 141.732 141.732" xml:space="preserve">
<path fill="#DD4814" d="M141.733,85.039c-31.261,0-56.693,25.433-56.693,56.693c0,31.261,25.433,56.694,56.693,56.694
	c9.949,0,19.753-2.629,28.351-7.605c2.188-1.266,3.535-3.603,3.535-6.131c0,0,0-14.586,0.001-14.586h-3.584
	c-1.956,0-3.543-1.586-3.543-3.545c0-1.957,1.587-3.543,3.543-3.543h3.583v-14.179h17.719c3.783,0,6.875-2.967,7.075-6.7
	c0.008-0.136,0.012-0.271,0.012-0.405C198.425,110.472,172.993,85.039,141.733,85.039z M166.484,141.874
	c-9.769,0-17.717-7.947-17.717-17.716c0-3.986,1.321-7.668,3.554-10.63h-31.966c-5.862,0-10.631,4.769-10.631,10.632
	c0,5.859,4.769,10.627,10.631,10.627v7.087c-9.771,0-17.719-7.946-17.719-17.714c0-9.771,7.948-17.719,17.719-17.719h46.129
	c9.77,0,17.717,7.948,17.717,17.717C184.201,133.927,176.254,141.874,166.484,141.874z M166.484,113.528
	c-5.86,0-10.631,4.769-10.631,10.63c0,5.861,4.771,10.63,10.631,10.63s10.63-4.769,10.63-10.63
	C177.114,118.297,172.346,113.528,166.484,113.528z M166.626,127.521c-1.958,0-3.545-1.586-3.545-3.543s1.587-3.543,3.545-3.543
	c1.955,0,3.543,1.586,3.543,3.543S168.581,127.521,166.626,127.521z"/>
</svg>
