<?xml version="1.0" encoding="utf-8"?>
<!-- Generator: Adobe Illustrator 15.1.0, SVG Export Plug-In . SVG Version: 6.00 Build 0)  -->
<!DOCTYPE svg PUBLIC "-//W3C//DTD SVG 1.1//EN" "http://www.w3.org/Graphics/SVG/1.1/DTD/svg11.dtd">
<svg version="1.1" id="Layer_1" xmlns="http://www.w3.org/2000/svg" xmlns:xlink="http://www.w3.org/1999/xlink" x="0px" y="0px"
	 width="141.732px" height="141.732px" viewBox="70.866 70.866 141.732 141.732"
	 enable-background="new 70.866 70.866 141.732 141.732" xml:space="preserve">
<path fill="#DD4814" d="M152.361,138.197h-21.258c0.008-5.854,4.772-10.615,10.628-10.615
	C147.589,127.582,152.354,132.342,152.361,138.197z M198.426,141.731c0-31.26-25.434-56.692-56.695-56.692
	c-31.26,0-56.691,25.432-56.691,56.692c0,16.177,6.812,30.792,17.715,41.13V141.74c0-1.957,1.587-3.543,3.543-3.543h3.544v-3.438
	h7.087v3.438h7.087c0.008-9.762,7.952-17.702,17.716-17.702s17.708,7.939,17.716,17.702h7.088v-3.438h7.086v3.438h3.545
	c1.956,0,3.543,1.586,3.543,3.543v41.121C191.613,172.523,198.426,157.908,198.426,141.731z"/>
</svg>
