<?xml version="1.0" encoding="utf-8"?>
<!-- Generator: Adobe Illustrator 15.1.0, SVG Export Plug-In . SVG Version: 6.00 Build 0)  -->
<!DOCTYPE svg PUBLIC "-//W3C//DTD SVG 1.1//EN" "http://www.w3.org/Graphics/SVG/1.1/DTD/svg11.dtd">
<svg version="1.1" id="Layer_1" xmlns="http://www.w3.org/2000/svg" xmlns:xlink="http://www.w3.org/1999/xlink" x="0px" y="0px"
	 width="141.732px" height="141.732px" viewBox="70.866 70.866 141.732 141.732"
	 enable-background="new 70.866 70.866 141.732 141.732" xml:space="preserve">
<path fill="#DD4814" d="M141.734,85.04c-31.26,0-56.695,25.432-56.695,56.691c0,31.261,25.436,56.695,56.695,56.695
	c31.261,0,56.691-25.434,56.691-56.695C198.426,110.472,172.995,85.04,141.734,85.04z M141.734,177.164
	c-18.316,0-33.435-13.971-35.253-31.814l-0.005-0.037H96.038c-1.432,0-2.724-0.863-3.273-2.188
	c-0.551-1.324-0.246-2.849,0.769-3.863l17.343-17.343c1.386-1.384,3.627-1.384,5.013,0l17.172,17.171
	c0.748,0.651,1.221,1.611,1.221,2.679c0,1.956-1.585,3.542-3.543,3.542c-0.003,0-0.007,0.002-0.012,0h-9.947l-0.005,0.002
	c1.71,10.021,10.457,17.679,20.96,17.679c11.724,0,21.26-9.539,21.26-21.262c0-11.721-9.536-21.256-21.26-21.256
	c-3.912,0-7.086-3.174-7.086-7.085c0-3.914,3.174-7.086,7.086-7.086c19.538,0,35.434,15.892,35.434,35.428
	C177.168,161.268,161.271,177.164,141.734,177.164z"/>
</svg>
