<?xml version="1.0" encoding="utf-8"?>
<!-- Generator: Adobe Illustrator 15.1.0, SVG Export Plug-In . SVG Version: 6.00 Build 0)  -->
<!DOCTYPE svg PUBLIC "-//W3C//DTD SVG 1.1//EN" "http://www.w3.org/Graphics/SVG/1.1/DTD/svg11.dtd">
<svg version="1.1" id="Layer_1" xmlns="http://www.w3.org/2000/svg" xmlns:xlink="http://www.w3.org/1999/xlink" x="0px" y="0px"
	 width="141.732px" height="141.732px" viewBox="70.866 70.866 141.732 141.732"
	 enable-background="new 70.866 70.866 141.732 141.732" xml:space="preserve">
<path fill="#DD4814" d="M180.635,170.171h10.109c-9.831,16.878-28.112,28.254-49.013,28.254c-20.893,0-39.168-11.368-49.002-28.235
	h20.599c2.935,0,5.315-2.379,5.315-5.314s-2.381-5.314-5.315-5.314H87.927c-0.514-1.547-0.961-3.123-1.344-4.728h26.745
	c2.935,0,5.315-2.38,5.315-5.313c0-2.938-2.381-5.314-5.315-5.314H85.103c-0.037-0.82-0.063-1.645-0.063-2.472
	c0-0.756,0.026-1.507,0.058-2.256h28.231c2.935,0,5.315-2.38,5.315-5.315s-2.381-5.314-5.315-5.314H86.534
	c0.375-1.604,0.812-3.182,1.32-4.729h25.474c2.935,0,5.315-2.38,5.315-5.316c0-2.934-2.381-5.314-5.315-5.314h-20.72
	c9.804-16.984,28.144-28.446,49.123-28.446c20.978,0,39.314,11.46,49.121,28.439h-10.225l0.045,0.007H132.81
	c-2.936,0-5.315,2.381-5.315,5.314c0,2.937,2.38,5.316,5.315,5.316h25.698c-1.174,1.463-2.206,3.045-3.074,4.726v0.003H132.81
	c-2.936,0-5.315,2.38-5.315,5.314c0,2.936,2.38,5.315,5.315,5.315h19.567c-0.062,0.773-0.097,1.557-0.097,2.349
	c0.002,0.803,0.034,1.595,0.102,2.379h-0.002h-19.57c-2.936,0-5.315,2.378-5.315,5.314c0,2.935,2.38,5.313,5.315,5.313h22.635
	v-0.003c0.871,1.684,1.906,3.266,3.086,4.73H132.81c-2.936,0-5.315,2.379-5.315,5.313c0,2.937,2.38,5.315,5.315,5.315h47.863
	L180.635,170.171z M194.388,135.516c-2.066,2.084-5.433,2.094-7.515,0.026c-1.671-1.661-3.889-2.575-6.245-2.575
	c-4.884,0-8.858,3.974-8.858,8.856c0,2.936-2.381,5.315-5.314,5.315c-2.936,0-5.314-2.38-5.314-5.315
	c0-10.746,8.741-19.486,19.488-19.486c5.182,0,10.061,2.012,13.735,5.664C196.447,130.069,196.457,133.434,194.388,135.516z
	 M170.008,141.823c0-1.957-1.588-3.543-3.543-3.543c-1.957,0-3.544,1.586-3.544,3.543c0,1.958,1.587,3.542,3.544,3.542
	C168.42,145.365,170.008,143.78,170.008,141.823z M116.173,118.68c0-1.468-1.189-2.657-2.657-2.657
	c-1.469,0-2.657,1.189-2.657,2.657c0,1.467,1.188,2.657,2.657,2.657C114.983,121.337,116.173,120.147,116.173,118.68
	 M116.173,133.998c0-1.468-1.189-2.657-2.657-2.657c-1.469,0-2.657,1.189-2.657,2.657s1.188,2.657,2.657,2.657
	C114.983,136.655,116.173,135.465,116.173,133.998 M116.173,149.314c0-1.469-1.189-2.656-2.657-2.656
	c-1.469,0-2.657,1.188-2.657,2.656s1.188,2.656,2.657,2.656C114.983,151.973,116.173,150.783,116.173,149.314 M116.173,164.633
	c0-1.468-1.189-2.656-2.657-2.656c-1.469,0-2.657,1.188-2.657,2.656c0,1.469,1.188,2.657,2.657,2.657
	C114.983,167.29,116.173,166.102,116.173,164.633"/>
</svg>
