<?xml version="1.0" encoding="utf-8"?>
<!-- Generator: Adobe Illustrator 15.1.0, SVG Export Plug-In . SVG Version: 6.00 Build 0)  -->
<!DOCTYPE svg PUBLIC "-//W3C//DTD SVG 1.1//EN" "http://www.w3.org/Graphics/SVG/1.1/DTD/svg11.dtd">
<svg version="1.1" id="Layer_1" xmlns="http://www.w3.org/2000/svg" xmlns:xlink="http://www.w3.org/1999/xlink" x="0px" y="0px"
	 width="141.732px" height="141.732px" viewBox="70.866 70.866 141.732 141.732"
	 enable-background="new 70.866 70.866 141.732 141.732" xml:space="preserve">
<g>
	<path fill="#DD4814" d="M136.78,147.671c1.385,1.384,3.197,2.075,5.011,2.075c1.812,0,3.626-0.691,5.009-2.075l12.665-12.665
		v24.434h-35.433v-24.518L136.78,147.671z M170.104,92.652c-2.192-1.27-4.896-1.272-7.091-0.007
		c-2.194,1.265-3.548,3.606-3.548,6.14v21.46L146.8,107.582c-2.765-2.767-7.251-2.767-10.02,0l-12.748,12.748V98.768
		c0-2.533-1.352-4.873-3.545-6.14c-2.193-1.264-4.896-1.264-7.088,0.004c-17.49,10.114-28.359,28.927-28.359,49.098
		c0,31.261,25.434,56.696,56.693,56.696c31.259,0,56.692-25.435,56.692-56.696C198.425,121.578,187.574,102.772,170.104,92.652"/>
</g>
</svg>
