<?xml version="1.0" encoding="utf-8"?>
<!-- Generator: Adobe Illustrator 15.1.0, SVG Export Plug-In . SVG Version: 6.00 Build 0)  -->
<!DOCTYPE svg PUBLIC "-//W3C//DTD SVG 1.1//EN" "http://www.w3.org/Graphics/SVG/1.1/DTD/svg11.dtd">
<svg version="1.1" id="Layer_1" xmlns="http://www.w3.org/2000/svg" xmlns:xlink="http://www.w3.org/1999/xlink" x="0px" y="0px"
	 width="141.732px" height="141.732px" viewBox="70.866 70.866 141.732 141.732"
	 enable-background="new 70.866 70.866 141.732 141.732" xml:space="preserve">
<path fill="#DD4814" d="M170.426,92.851l0.001,0.003l-24.757,48.89c-0.732,1.464-2.221,2.352-3.804,2.352l-0.003-0.001
	c-1.581,0-3.069-0.888-3.802-2.351l-24.569-49.161l0.001,0.002c-16.991,9.802-28.453,28.16-28.453,49.147
	c0,31.261,25.431,56.692,56.692,56.692s56.693-25.432,56.693-56.692C198.425,120.934,187.167,102.716,170.426,92.851z
	 M127.523,170.439c-1.956,0-3.542-1.586-3.542-3.543s1.586-3.543,3.542-3.543c1.958,0,3.544,1.586,3.544,3.543
	S129.481,170.439,127.523,170.439z M127.523,156.045c-1.956,0-3.542-1.586-3.542-3.544c0-1.957,1.586-3.543,3.542-3.543
	c1.958,0,3.544,1.586,3.544,3.543C131.067,154.459,129.481,156.045,127.523,156.045z M181.701,141.733H171.67l-10.146-0.037
	c-0.571,0-1.104-0.297-1.402-0.784c-0.303-0.487-0.33-1.095-0.073-1.606l10.146-20.156c0.285-0.568,0.861-0.913,1.479-0.913
	s1.192,0.345,1.479,0.913l10.029,20.193c0.256,0.511,0.229,1.119-0.07,1.606C182.805,141.436,182.273,141.733,181.701,141.733z
	 M155.441,86.715l-5.28,10.135v-0.002l6.317,13.075v-0.095l-11.926,23.282c-0.508,1.017-1.543,1.633-2.643,1.633h-0.001
	c-1.1,0-2.134-0.616-2.644-1.635l-11.741-23.222v0.095l6.318-12.909l-5.376-10.463v-0.002c4.258-1.025,8.698-1.568,13.266-1.568
	C146.459,85.04,151.05,85.621,155.441,86.715"/>
</svg>
