<?xml version="1.0" encoding="utf-8"?>
<!-- Generator: Adobe Illustrator 15.1.0, SVG Export Plug-In . SVG Version: 6.00 Build 0)  -->
<!DOCTYPE svg PUBLIC "-//W3C//DTD SVG 1.1//EN" "http://www.w3.org/Graphics/SVG/1.1/DTD/svg11.dtd">
<svg version="1.1" id="Layer_1" xmlns="http://www.w3.org/2000/svg" xmlns:xlink="http://www.w3.org/1999/xlink" x="0px" y="0px"
	 width="141.732px" height="141.732px" viewBox="70.866 70.866 141.732 141.732"
	 enable-background="new 70.866 70.866 141.732 141.732" xml:space="preserve">
<path fill="#DD4814" d="M173.829,117.079h19.101c-9.242-18.893-28.66-31.938-51.073-31.938c-7.516,0-14.688,1.479-21.261,4.143
	v64.852H106.39V97.618c-13.002,10.421-21.351,26.421-21.351,44.344c0,28.929,21.734,52.86,49.728,56.363v-81.246h10.65v7.092h-3.523
	v7.102H156.1v-7.102h-3.578v-7.092h14.205v7.092h-3.578v7.102h14.205v-7.102h-3.523L173.829,117.079L173.829,117.079z
	 M113.394,172.186l-7.151-12.387h14.302L113.394,172.186z"/>
</svg>
