<?xml version="1.0" encoding="utf-8"?>
<!-- Generator: Adobe Illustrator 15.1.0, SVG Export Plug-In . SVG Version: 6.00 Build 0)  -->
<!DOCTYPE svg PUBLIC "-//W3C//DTD SVG 1.1//EN" "http://www.w3.org/Graphics/SVG/1.1/DTD/svg11.dtd">
<svg version="1.1" id="Layer_1" xmlns="http://www.w3.org/2000/svg" xmlns:xlink="http://www.w3.org/1999/xlink" x="0px" y="0px"
	 width="170.078px" height="170.079px" viewBox="56.693 56.693 170.078 170.079"
	 enable-background="new 56.693 56.693 170.078 170.079" xml:space="preserve">
<path fill="#DD4814" d="M159.359,113.267c0,1.947-1.58,3.532-3.525,3.532c-1.952,0-3.534-1.585-3.534-3.532
	c0-1.949,1.582-3.526,3.534-3.526C157.779,109.74,159.359,111.317,159.359,113.267z M215.809,137.989v12.358
	c0,3.898-3.16,7.06-7.06,7.06c-3.896,0-7.062-3.16-7.062-7.06c0-2.318-1.5-4.289-3.578-5.007
	c-1.256,18.927-11.788,36.146-28.114,45.576c1.084,0.002,2.1,0.251,3.011,0.688c2.413,1.117,4.085,3.559,4.092,6.394
	c0.006,3.661-2.779,6.685-6.359,7.037h-0.006c-0.187,0.017-0.379,0.032-0.567,0.032h-0.007h-0.012h-0.013
	c-0.024,0-0.041,0-0.063,0.002h-0.062h-0.037h-56.382h-0.103c-3.894-0.021-7.033-3.182-7.027-7.071
	c0.01-3.894,3.169-7.046,7.059-7.046h0.031c-0.003-0.002-0.014-0.039-0.022-0.053c-16.325-9.459-26.84-26.684-28.095-45.588
	c-2.12,0.694-3.654,2.689-3.654,5.035c0,3.897-3.163,7.059-7.062,7.059c-3.9,0-7.058-3.16-7.058-7.059v-12.36
	c0-1.873,0.743-3.669,2.066-4.992c1.324-1.325,3.121-2.069,4.991-2.069h0.002l11.584,0.006
	c4.967-26.101,27.948-45.895,55.469-45.895s50.508,19.794,55.477,45.895l11.5-0.006h0.003c1.871,0,3.664,0.744,4.991,2.069
	C215.064,134.32,215.809,136.117,215.809,137.989z M145.277,137.901c0-1.951-1.58-3.531-3.521-3.531
	c-1.952,0-3.534,1.58-3.534,3.531v10.589c0,1.945,1.582,3.525,3.534,3.525c1.941,0,3.521-1.58,3.521-3.525V137.901z
	 M177.018,113.247c0-11.208-9.476-20.294-21.168-20.294c-5.421,0-10.358,1.95-14.104,5.159c-3.745-3.209-8.688-5.159-14.1-5.159
	c-11.698,0-21.182,9.086-21.182,20.294c0,11.207,9.484,20.295,21.182,20.295c5.413,0,10.355-1.954,14.1-5.162
	c3.745,3.208,8.683,5.162,14.104,5.162C167.542,133.542,177.018,124.454,177.018,113.247z M127.627,109.74
	c-1.951,0-3.53,1.577-3.53,3.526c0,1.947,1.58,3.532,3.53,3.532c1.949,0,3.527-1.585,3.527-3.532
	C131.154,111.317,129.576,109.74,127.627,109.74z"/>
</svg>
