<?xml version="1.0" encoding="utf-8"?>
<!-- Generator: Adobe Illustrator 15.1.0, SVG Export Plug-In . SVG Version: 6.00 Build 0)  -->
<!DOCTYPE svg PUBLIC "-//W3C//DTD SVG 1.1//EN" "http://www.w3.org/Graphics/SVG/1.1/DTD/svg11.dtd">
<svg version="1.1" id="Layer_1" xmlns="http://www.w3.org/2000/svg" xmlns:xlink="http://www.w3.org/1999/xlink" x="0px" y="0px"
	 width="170.078px" height="170.079px" viewBox="56.693 56.693 170.078 170.079"
	 enable-background="new 56.693 56.693 170.078 170.079" xml:space="preserve">
<path fill="#DD4814" d="M197.686,65.196h-12.437c-0.064,0-0.13,0.007-0.193,0.009h-49.545h-0.001
	c-31.341,0-56.839,25.498-56.839,56.84c0,28.927,21.725,52.878,49.715,56.394v39.828h14.212v-39.823
	c27.991-3.497,49.727-27.433,49.751-56.353c0-0.017,0.001-0.031,0.001-0.046V84.891c0.002-0.052,0.01-0.104,0.01-0.156
	c0-2.939,2.39-5.33,5.326-5.33c3.926,0,7.107-3.181,7.107-7.105C204.793,68.376,201.609,65.196,197.686,65.196z M149.354,135.881
	c-6.035,6.032-14.061,9.356-22.599,9.356h-0.002c-2.794,0-5.578-0.365-8.273-1.084c-2.459-0.654-4.379-2.574-5.033-5.033
	c-2.936-11.004,0.234-22.834,8.275-30.875c6.035-6.034,14.062-9.356,22.599-9.356c2.795,0,5.58,0.362,8.272,1.083
	c2.46,0.655,4.378,2.575,5.033,5.032C160.562,116.008,157.393,127.838,149.354,135.881z M171.259,82.917
	c-1.961,0-3.554-1.59-3.554-3.553c0-1.961,1.593-3.552,3.554-3.552c1.962,0,3.554,1.591,3.554,3.552
	C174.812,81.327,173.221,82.917,171.259,82.917z"/>
</svg>
