<?xml version="1.0" encoding="utf-8"?>
<!-- Generator: Adobe Illustrator 15.1.0, SVG Export Plug-In . SVG Version: 6.00 Build 0)  -->
<!DOCTYPE svg PUBLIC "-//W3C//DTD SVG 1.1//EN" "http://www.w3.org/Graphics/SVG/1.1/DTD/svg11.dtd">
<svg version="1.1" id="Layer_1" xmlns="http://www.w3.org/2000/svg" xmlns:xlink="http://www.w3.org/1999/xlink" x="0px" y="0px"
	 width="141.732px" height="141.732px" viewBox="70.866 70.866 141.732 141.732"
	 enable-background="new 70.866 70.866 141.732 141.732" xml:space="preserve">
<g id="Layer_1_1_">
	<path fill="#DD4814" d="M141.733,85.04c-31.311,0-56.693,25.382-56.693,56.693s25.383,56.691,56.693,56.691
		s56.691-25.381,56.691-56.691C198.425,110.422,173.044,85.04,141.733,85.04z M141.732,112.146c6.85,0,12.401,5.553,12.401,12.4
		c0,6.852-5.552,12.403-12.401,12.403c-6.848,0-12.401-5.552-12.401-12.403C129.331,117.698,134.885,112.146,141.732,112.146z
		 M166.538,171.318H116.93c-1.956,0-3.544-1.588-3.544-3.543c0-15.629,12.717-28.348,28.347-28.348
		c15.63,0,28.347,12.719,28.347,28.348C170.079,169.73,168.493,171.318,166.538,171.318z"/>
</g>
<g id="icons">
</g>
</svg>
