<?xml version="1.0" encoding="utf-8"?>
<!-- Generator: Adobe Illustrator 15.1.0, SVG Export Plug-In . SVG Version: 6.00 Build 0)  -->
<!DOCTYPE svg PUBLIC "-//W3C//DTD SVG 1.1//EN" "http://www.w3.org/Graphics/SVG/1.1/DTD/svg11.dtd">
<svg version="1.1" id="Layer_1" xmlns="http://www.w3.org/2000/svg" xmlns:xlink="http://www.w3.org/1999/xlink" x="0px" y="0px"
	 width="141.732px" height="141.732px" viewBox="70.866 70.866 141.732 141.732"
	 enable-background="new 70.866 70.866 141.732 141.732" xml:space="preserve">
<path fill="#DD4814" d="M119.077,164.836l8.498-9.749v9.749H119.077z M198.425,141.731c0,0.047,0,0.096,0,0.146
	c-0.067,3.855-3.215,6.959-7.086,6.959H173.62v11.799c0-0.001-7.076-0.001-7.076-0.001c-4.74,0-8.596-3.856-8.596-8.597
	c0-3.079-2.498-5.576-5.578-5.576s-5.576,2.497-5.576,5.576c0,10.893,8.858,20.361,19.75,20.361h7.076v12.287
	c0,2.529-1.349,4.866-3.535,6.135c-8.598,4.975-18.401,7.604-28.352,7.604c-31.262,0-56.693-25.434-56.693-56.695
	c0-31.26,25.432-56.691,56.693-56.691S198.425,110.471,198.425,141.731z M115.175,105.574c0,1.274-1.451,1.975-2.352,2.524
	c-2.225,1.35-4.725,2.675-6.172,4.7c-0.852,1.173-1.352,2.623-1.25,4.298h15.07v-4.249h-7.873v-0.025
	c3.275-2,7.623-3.399,7.623-7.848c0-3.701-2.873-5.475-7.098-5.475c-4.676,0-7.648,2.75-7.373,7.524h4.699
	c-0.051-2.125,0.623-3.574,2.623-3.574C114.249,103.449,115.175,104,115.175,105.574z M93.712,131.692h24.725v-7.648H93.712V131.692
	z M118.437,143.742v-7.65H93.712v7.65H118.437z M142.673,164.836h-4.699v-19.396h-9.947l-15.898,18.498v9.397h15.447v6.899h10.398
	v-6.899h4.699V164.836z M145.261,122.194h-5.16v9.56h-0.029c-2.428-3.975-4.129-9.255-9.529-9.255c-4.494,0-6.648,3.489-6.648,8.618
	c0,5.678,3.34,9.287,9.135,8.953v-5.706c-2.578,0.062-4.338-0.758-4.338-3.185c0-1.429,0.668-2.55,2.578-2.55
	c1.549,0,2.398,1.758,3.064,2.853c1.641,2.7,3.248,5.734,5.707,7.496c1.428,1.032,3.186,1.638,5.221,1.518L145.261,122.194
	L145.261,122.194z M152.327,100.957h-8.64v-8.639h-7.51v8.639h-8.641v7.509h8.641v8.641h7.51v-8.641h8.64V100.957z M166.4,124.118
	c0-1.957-1.586-3.543-3.543-3.543s-3.543,1.586-3.543,3.543s1.586,3.543,3.543,3.543S166.4,126.075,166.4,124.118z"/>
</svg>
