<?xml version="1.0" encoding="utf-8"?>
<!-- Generator: Adobe Illustrator 15.1.0, SVG Export Plug-In . SVG Version: 6.00 Build 0)  -->
<!DOCTYPE svg PUBLIC "-//W3C//DTD SVG 1.1//EN" "http://www.w3.org/Graphics/SVG/1.1/DTD/svg11.dtd">
<svg version="1.1" id="Layer_1" xmlns="http://www.w3.org/2000/svg" xmlns:xlink="http://www.w3.org/1999/xlink" x="0px" y="0px"
	 width="141.732px" height="141.732px" viewBox="70.866 70.866 141.732 141.732"
	 enable-background="new 70.866 70.866 141.732 141.732" xml:space="preserve">
<path fill="#DD4814" d="M141.708,85.039c-23.062,0-42.937,13.851-51.784,33.663h24.867c-0.961,1.123-1.855,2.305-2.672,3.543H88.468
	c-0.842,2.295-1.525,4.664-2.068,7.085h22.112c-0.432,1.155-0.809,2.336-1.12,3.544H85.714c-0.365,2.318-0.577,4.685-0.651,7.087
	h21.259c-0.029,0.587-0.044,1.177-0.044,1.77c0,0.595,0.016,1.186,0.044,1.773h-21.26c0.074,2.401,0.287,4.77,0.652,7.086h21.68
	c0.311,1.208,0.688,2.389,1.12,3.544H86.401c0.543,2.423,1.227,4.792,2.069,7.087h23.652c0.817,1.238,1.712,2.422,2.674,3.545
	H89.927c8.847,19.812,28.721,33.658,51.782,33.658c31.261,0,56.693-25.433,56.693-56.693
	C198.402,110.471,172.97,85.039,141.708,85.039z M136.399,116.953c0-2.935,2.38-5.315,5.315-5.315c2.937,0,5.315,2.38,5.315,5.315
	v24.909c0,2.935-2.381,5.314-5.315,5.314s-5.315-2.38-5.315-5.314V116.953z M160.559,160.562
	c-5.021,5.021-11.693,7.783-18.792,7.783c-0.001,0-0.001,0-0.002,0c-7.099,0-13.772-2.766-18.791-7.785
	c-9.965-9.965-10.417-25.995-1.03-36.491c1.957-2.189,5.318-2.376,7.504-0.419c2.188,1.957,2.376,5.317,0.419,7.505
	c-5.629,6.296-5.357,15.91,0.623,21.888c3.012,3.013,7.016,4.672,11.275,4.672c4.258,0,8.262-1.657,11.274-4.669
	c5.958-5.959,6.247-15.556,0.66-21.849c-1.948-2.196-1.749-5.556,0.445-7.504c2.194-1.951,5.555-1.75,7.504,0.445
	C170.966,134.633,170.487,150.631,160.559,160.562z"/>
</svg>
