<?xml version="1.0" encoding="utf-8"?>
<!-- Generator: Adobe Illustrator 15.1.0, SVG Export Plug-In . SVG Version: 6.00 Build 0)  -->
<!DOCTYPE svg PUBLIC "-//W3C//DTD SVG 1.1//EN" "http://www.w3.org/Graphics/SVG/1.1/DTD/svg11.dtd">
<svg version="1.1" id="Layer_1" xmlns="http://www.w3.org/2000/svg" xmlns:xlink="http://www.w3.org/1999/xlink" x="0px" y="0px"
	 width="141.732px" height="141.732px" viewBox="70.866 70.866 141.732 141.732"
	 enable-background="new 70.866 70.866 141.732 141.732" xml:space="preserve">
<path fill="#DD4814" d="M151.758,131.678c2.678,2.676,4.151,6.236,4.151,10.022s-1.476,7.344-4.151,10.021
	c-2.676,2.678-6.234,4.151-10.02,4.151c-3.786,0-7.345-1.476-10.021-4.151c-2.677-2.678-4.152-6.236-4.152-10.021
	c0-3.785,1.475-7.343,4.153-10.021c2.677-2.678,6.236-4.152,10.021-4.152C145.521,127.527,149.081,129.001,151.758,131.678z
	 M181.818,181.818c-22.141,22.142-58.032,22.142-80.174,0c-22.139-22.143-22.14-58.032,0-80.173
	c22.142-22.14,58.036-22.142,80.174-0.002C203.96,123.786,203.96,159.68,181.818,181.818z M184.217,148.704v-14.172h-15.048
	c-0.668-2.572-1.69-5.029-3.052-7.312l10.656-10.658l-10.022-10.021l-10.69,10.69c-2.272-1.337-4.718-2.345-7.273-2.997V99.099
	h-14.173v15.158c-2.547,0.657-4.983,1.666-7.248,3.004l-10.719-10.72l-10.023,10.021l10.708,10.708
	c-1.347,2.268-2.362,4.708-3.024,7.261H99.18v14.172h15.081c0.651,2.572,1.665,5.033,3.009,7.32l-10.648,10.647l10.023,10.021
	l10.614-10.613c2.294,1.367,4.766,2.396,7.354,3.062v14.993h14.173v-14.972c2.597-0.662,5.077-1.688,7.382-3.057l10.585,10.586
	l10.021-10.021l-10.597-10.6c1.358-2.301,2.382-4.777,3.037-7.369h15.003V148.704z"/>
</svg>
