<?xml version="1.0" encoding="utf-8"?>
<!-- Generator: Adobe Illustrator 15.1.0, SVG Export Plug-In . SVG Version: 6.00 Build 0)  -->
<!DOCTYPE svg PUBLIC "-//W3C//DTD SVG 1.1//EN" "http://www.w3.org/Graphics/SVG/1.1/DTD/svg11.dtd">
<svg version="1.1" id="Layer_1" xmlns="http://www.w3.org/2000/svg" xmlns:xlink="http://www.w3.org/1999/xlink" x="0px" y="0px"
	 width="141.732px" height="141.732px" viewBox="70.866 70.866 141.732 141.732"
	 enable-background="new 70.866 70.866 141.732 141.732" xml:space="preserve">
<path fill="#DD4814" d="M141.73,85.04c-31.312,0-56.691,25.381-56.691,56.691c0,31.312,25.379,56.694,56.691,56.694
	s56.696-25.382,56.696-56.694C198.426,110.42,173.042,85.04,141.73,85.04z M171.291,118.261c-1.838,3.749-6.366,5.297-10.116,3.458
	l-11.923-5.847v47.569c0.02,0.318,0.028,0.642,0.028,0.966c0,10.596-9.96,18.896-22.676,18.896
	c-12.717,0-22.679-8.301-22.679-18.896c0-10.599,9.962-18.899,22.679-18.899c2.652,0,5.182,0.366,7.529,1.034v-42.796
	c0-2.609,1.347-5.034,3.561-6.415c2.216-1.382,4.983-1.521,7.328-0.372l22.812,11.187
	C171.58,109.984,173.129,114.513,171.291,118.261z"/>
</svg>
