<?xml version="1.0" encoding="utf-8"?>
<!-- Generator: Adobe Illustrator 15.1.0, SVG Export Plug-In . SVG Version: 6.00 Build 0)  -->
<!DOCTYPE svg PUBLIC "-//W3C//DTD SVG 1.1//EN" "http://www.w3.org/Graphics/SVG/1.1/DTD/svg11.dtd">
<svg version="1.1" id="Layer_1" xmlns="http://www.w3.org/2000/svg" xmlns:xlink="http://www.w3.org/1999/xlink" x="0px" y="0px"
	 width="141.732px" height="141.732px" viewBox="70.866 70.866 141.732 141.732"
	 enable-background="new 70.866 70.866 141.732 141.732" xml:space="preserve">
<path fill="#DD4814" d="M141.733,198.425c-15.143,0-29.38-5.897-40.088-16.604c-10.708-10.709-16.605-24.945-16.605-40.088
	c0-15.142,5.897-29.378,16.605-40.086s24.945-16.605,40.088-16.605c15.142,0,29.379,5.896,40.087,16.604
	s16.604,24.946,16.604,40.089s-5.897,29.381-16.604,40.088C171.112,192.527,156.875,198.425,141.733,198.425L141.733,198.425z
	 M141.733,99.213c-11.357,0-22.035,4.423-30.067,12.454c-8.031,8.031-12.454,18.708-12.454,30.064
	c0,11.357,4.423,22.035,12.454,30.065c8.032,8.031,18.709,12.455,30.067,12.455c11.356,0,22.035-4.423,30.064-12.453
	c8.031-8.03,12.455-18.709,12.455-30.066s-4.424-22.036-12.455-30.067C163.768,103.636,153.09,99.213,141.733,99.213L141.733,99.213
	z M151.703,141.79l10.021-10.022c2.768-2.768,2.768-7.254,0-10.021s-7.256-2.767-10.021,0l-10.022,10.021l-10.021-10.021
	c-2.767-2.767-7.255-2.767-10.022,0c-2.768,2.768-2.768,7.254,0,10.021l10.022,10.022l-10.023,10.022
	c-2.768,2.769-2.768,7.254,0,10.021c1.383,1.384,3.197,2.076,5.011,2.076c1.813,0,3.627-0.692,5.011-2.076l10.023-10.023
	l10.022,10.021c1.383,1.384,3.196,2.076,5.011,2.076s3.627-0.692,5.012-2.076c2.768-2.768,2.768-7.254,0-10.021L151.703,141.79z"/>
</svg>
