<?xml version="1.0" encoding="utf-8"?>
<!-- Generator: Adobe Illustrator 15.1.0, SVG Export Plug-In . SVG Version: 6.00 Build 0)  -->
<!DOCTYPE svg PUBLIC "-//W3C//DTD SVG 1.1//EN" "http://www.w3.org/Graphics/SVG/1.1/DTD/svg11.dtd">
<svg version="1.1" id="Layer_1" xmlns="http://www.w3.org/2000/svg" xmlns:xlink="http://www.w3.org/1999/xlink" x="0px" y="0px"
	 width="141.732px" height="141.732px" viewBox="70.866 70.866 141.732 141.732"
	 enable-background="new 70.866 70.866 141.732 141.732" xml:space="preserve">
<path fill="#DD4814" d="M177.479,166.912c0,9.79-7.966,17.756-17.756,17.756c-9.791,0-17.757-7.966-17.757-17.756
	c0-9.186,7.011-16.764,15.962-17.666v-5.234c0-0.718,0.434-1.365,1.096-1.641c0.662-0.273,1.428-0.124,1.937,0.385l8.69,8.692
	c0.693,0.692,0.693,1.817,0,2.512l-8.69,8.69c-0.34,0.34-0.794,0.521-1.256,0.521c-0.229,0-0.46-0.044-0.681-0.135
	c-0.662-0.275-1.096-0.923-1.096-1.642v-4.976c-5.021,0.856-8.858,5.229-8.858,10.492c0,5.874,4.778,10.653,10.653,10.653
	s10.653-4.779,10.653-10.653c0-1.961,1.59-3.552,3.551-3.552C175.889,163.361,177.479,164.951,177.479,166.912z M173.829,117.079
	h19.101c-9.242-18.893-28.66-31.938-51.073-31.938c-7.516,0-14.688,1.479-21.261,4.143v64.852H106.39V97.618
	c-13.002,10.421-21.351,26.421-21.351,44.344c0,28.929,21.734,52.86,49.728,56.363v-81.246h10.65v7.092h-3.523v7.102H156.1v-7.102
	h-3.578v-7.092h14.205v7.092h-3.578v7.102h14.205v-7.102h-3.523L173.829,117.079L173.829,117.079z M113.394,172.186l-7.151-12.387
	h14.302L113.394,172.186z"/>
</svg>
