<?xml version="1.0" encoding="utf-8"?>
<!-- Generator: Adobe Illustrator 15.1.0, SVG Export Plug-In . SVG Version: 6.00 Build 0)  -->
<!DOCTYPE svg PUBLIC "-//W3C//DTD SVG 1.1//EN" "http://www.w3.org/Graphics/SVG/1.1/DTD/svg11.dtd">
<svg version="1.1" id="Layer_1" xmlns="http://www.w3.org/2000/svg" xmlns:xlink="http://www.w3.org/1999/xlink" x="0px" y="0px"
	 width="141.732px" height="141.732px" viewBox="70.866 70.866 141.732 141.732"
	 enable-background="new 70.866 70.866 141.732 141.732" xml:space="preserve">
<path fill="#DD4814" d="M141.732,85.039c-31.26,0-56.692,25.432-56.692,56.692c0,31.262,25.432,56.695,56.692,56.695
	c31.261,0,56.694-25.433,56.694-56.695C198.426,110.471,172.993,85.039,141.732,85.039z M165.335,155.943h-20.14v-18.064
	c10.045-1.684,17.701-10.417,17.701-20.938c-11.416,0-20.726,9.008-21.214,20.304h-0.047c-0.489-11.296-9.799-20.304-21.215-20.304
	c0,10.517,7.649,19.245,17.688,20.936v18.066h-19.963c-7.819,0-14.158-6.342-14.158-14.16c0-7.526,5.87-13.676,13.281-14.129
	c-3.312-6.644-0.922-14.804,5.596-18.568c6.517-3.762,14.778-1.754,18.877,4.437c4.099-6.189,12.36-8.199,18.877-4.435
	c6.517,3.762,8.907,11.921,5.596,18.566c7.411,0.453,13.28,6.604,13.28,14.129C179.494,149.604,173.156,155.943,165.335,155.943z"/>
</svg>
