<?xml version="1.0" encoding="utf-8"?>
<!-- Generator: Adobe Illustrator 15.1.0, SVG Export Plug-In . SVG Version: 6.00 Build 0)  -->
<!DOCTYPE svg PUBLIC "-//W3C//DTD SVG 1.1//EN" "http://www.w3.org/Graphics/SVG/1.1/DTD/svg11.dtd">
<svg version="1.1" id="Layer_1" xmlns="http://www.w3.org/2000/svg" xmlns:xlink="http://www.w3.org/1999/xlink" x="0px" y="0px"
	 width="141.732px" height="141.732px" viewBox="70.866 70.866 141.732 141.732"
	 enable-background="new 70.866 70.866 141.732 141.732" xml:space="preserve">
<path fill="#DD4814" d="M141.733,85.039c-31.262,0-56.693,25.432-56.693,56.692c0,31.261,25.432,56.695,56.693,56.695
	c31.259,0,56.692-25.434,56.692-56.695C198.425,110.471,172.992,85.039,141.733,85.039z M159.081,136.182h-0.013h-10.25v28.448
	c0,3.914-3.174,7.086-7.086,7.086c-3.914,0-7.087-3.172-7.087-7.086v-28.448h-10.264c-1.434,0-2.724-0.863-3.273-2.187
	c-0.549-1.326-0.246-2.852,0.77-3.863l17.342-17.344c1.385-1.383,3.63-1.383,5.013,0l17.172,17.173
	c0.748,0.649,1.222,1.606,1.222,2.677C162.625,134.595,161.038,136.182,159.081,136.182z"/>
</svg>
