<?xml version="1.0" encoding="utf-8"?>
<!-- Generator: Adobe Illustrator 15.1.0, SVG Export Plug-In . SVG Version: 6.00 Build 0)  -->
<!DOCTYPE svg PUBLIC "-//W3C//DTD SVG 1.1//EN" "http://www.w3.org/Graphics/SVG/1.1/DTD/svg11.dtd">
<svg version="1.1" id="Layer_1" xmlns="http://www.w3.org/2000/svg" xmlns:xlink="http://www.w3.org/1999/xlink" x="0px" y="0px"
	 width="141.732px" height="141.732px" viewBox="70.866 70.866 141.732 141.732"
	 enable-background="new 70.866 70.866 141.732 141.732" xml:space="preserve">
<path fill="#DD4814" d="M141.733,198.426c-31.261,0-56.693-25.433-56.693-56.692c0-31.262,25.433-56.695,56.693-56.695
	c31.26,0,56.692,25.433,56.692,56.695C198.425,172.993,172.993,198.426,141.733,198.426L141.733,198.426z M141.733,113.385
	c-15.63,0-28.347,12.717-28.347,28.348c0,15.63,12.717,28.346,28.347,28.346c15.629,0,28.345-12.716,28.345-28.346
	C170.078,126.102,157.362,113.385,141.733,113.385L141.733,113.385z M132.715,147.111c2.935,5.084,9.436,6.824,14.52,3.89
	c5.084-2.933,6.826-9.436,3.892-14.52c-2.937-5.085-9.437-6.826-14.52-3.891C131.522,135.525,129.779,142.026,132.715,147.111z"/>
</svg>
