<?xml version="1.0" encoding="utf-8"?>
<!-- Generator: Adobe Illustrator 15.1.0, SVG Export Plug-In . SVG Version: 6.00 Build 0)  -->
<!DOCTYPE svg PUBLIC "-//W3C//DTD SVG 1.1//EN" "http://www.w3.org/Graphics/SVG/1.1/DTD/svg11.dtd">
<svg version="1.1" id="Layer_1" xmlns="http://www.w3.org/2000/svg" xmlns:xlink="http://www.w3.org/1999/xlink" x="0px" y="0px"
	 width="141.732px" height="141.732px" viewBox="70.866 70.866 141.732 141.732"
	 enable-background="new 70.866 70.866 141.732 141.732" xml:space="preserve">
<path fill="#DD4814" d="M141.733,85.04c-31.26,0-56.692,25.433-56.692,56.693c0,31.259,25.432,56.692,56.692,56.692
	c9.946,0,19.75-2.629,28.348-7.604c2.188-1.266,3.537-3.604,3.537-6.133v-14.594h-3.683c-1.957,0-3.545-1.587-3.545-3.544
	c0-1.956,1.588-3.543,3.545-3.543h3.683v-14.172h17.718c3.7,0,6.737-2.836,7.059-6.453c0.021-0.217,0.029-0.434,0.029-0.649
	C198.424,110.472,172.992,85.04,141.733,85.04z M164.107,142.826c-4.595,0-8.442-3.234-9.403-7.546
	c-1.751,0.914-3.736,1.438-5.845,1.438c-6.996,0-12.688-5.692-12.688-12.689c0-6.997,5.692-12.689,12.688-12.689
	s12.688,5.692,12.688,12.689c0,0.015-0.002,0.029-0.002,0.044c0,0.028,0.008,0.055,0.008,0.083v9.027
	c0,1.409,1.146,2.556,2.554,2.556c1.408,0,2.556-1.146,2.556-2.556l-0.005-9.153c0-9.815-7.983-17.8-17.799-17.8
	c-9.814,0-17.796,7.984-17.796,17.798c0,9.815,7.982,17.799,17.796,17.799h6.105c1.957,0,3.543,1.586,3.543,3.543
	s-1.586,3.544-3.543,3.544h-6.105c-13.722,0-24.883-11.164-24.883-24.886c0-13.721,11.162-24.885,24.883-24.885
	c13.723,0,24.887,11.164,24.887,24.885l0.004,9.152C173.75,138.5,169.425,142.826,164.107,142.826z M154.462,124.029
	c0,3.09-2.513,5.603-5.603,5.603s-5.602-2.513-5.602-5.603c0-3.089,2.512-5.603,5.602-5.603S154.462,120.939,154.462,124.029z"/>
</svg>
